<svg width="31" height="17" viewBox="0 0 31 17" fill="none" xmlns="http://www.w3.org/2000/svg">
<path d="M10.4492 10.2852V6.92188C10.4492 6.46094 10.3594 6.02734 10.1797 5.62109C10.0078 5.20703 9.76953 4.84766 9.46484 4.54297C9.16016 4.23828 8.80078 4 8.38672 3.82812C7.98047 3.64844 7.54688 3.55859 7.08594 3.55859C6.625 3.55859 6.1875 3.64844 5.77344 3.82812C5.36719 4 5.01172 4.23828 4.70703 4.54297C4.40234 4.84766 4.16016 5.20703 3.98047 5.62109C3.80859 6.02734 3.72266 6.46094 3.72266 6.92188V10.2852H10.4492ZM13.8125 17H10.4492V13.6367H3.72266V17H0.371094V6.92188C0.371094 5.99219 0.546875 5.12109 0.898438 4.30859C1.25 3.48828 1.72656 2.77344 2.32812 2.16406C2.9375 1.55469 3.64844 1.07422 4.46094 0.722656C5.28125 0.371094 6.15625 0.195312 7.08594 0.195312C8.01562 0.195312 8.88672 0.371094 9.69922 0.722656C10.5195 1.07422 11.2344 1.55469 11.8438 2.16406C12.4531 2.77344 12.9336 3.48828 13.2852 4.30859C13.6367 5.12109 13.8125 5.99219 13.8125 6.92188V17ZM20.0938 17H16.7305V0.195312H20.0938V6.92188H26.8086V0.195312H30.1719V17H26.8086V10.2852H20.0938V17Z" fill="#323846"/>
</svg>
