<svg width="108" height="30" viewBox="0 0 108 30" fill="none" xmlns="http://www.w3.org/2000/svg">
<path d="M42.0405 13.5391H39.457L39.0059 15H36.9917L39.8599 7.17969H41.6323L44.522 15H42.4971L42.0405 13.5391ZM39.9082 12.0835H41.5894L40.7461 9.37109L39.9082 12.0835ZM46.9819 13.5498H50.2637V15H45.0967V7.17969H46.9819V13.5498ZM56.0913 8.63525H53.7441V15H51.8589V8.63525H49.5547V7.17969H56.0913V8.63525ZM61.7417 11.686H58.7769V13.5498H62.2788V15H56.8916V7.17969H62.2896V8.63525H58.7769V10.2842H61.7417V11.686ZM65.9526 12.2393H64.9321V15H63.0469V7.17969H66.1245C67.0519 7.17969 67.777 7.38558 68.2998 7.79736C68.8226 8.20915 69.084 8.79102 69.084 9.54297C69.084 10.0872 68.973 10.5384 68.751 10.8965C68.5326 11.2546 68.1888 11.5446 67.7197 11.7666L69.3525 14.9194V15H67.333L65.9526 12.2393ZM64.9321 10.7837H66.1245C66.4826 10.7837 66.7511 10.6906 66.9302 10.5044C67.1128 10.3146 67.2041 10.0514 67.2041 9.71484C67.2041 9.37826 67.1128 9.11507 66.9302 8.92529C66.7476 8.73193 66.479 8.63525 66.1245 8.63525H64.9321V10.7837ZM76.7539 15H74.8794L72.1079 10.1338V15H70.2227V7.17969H72.1079L74.874 12.0459V7.17969H76.7539V15ZM82.4849 13.5391H79.9014L79.4502 15H77.436L80.3042 7.17969H82.0767L84.9663 15H82.9414L82.4849 13.5391ZM80.3525 12.0835H82.0337L81.1904 9.37109L80.3525 12.0835ZM91.0356 8.63525H88.6885V15H86.8032V8.63525H84.499V7.17969H91.0356V8.63525ZM93.8447 15H91.9648V7.17969H93.8447V15ZM98.1899 12.873L99.7476 7.17969H101.853L99.2212 15H97.1587L94.5483 7.17969H96.6377L98.1899 12.873ZM107.278 11.686H104.313V13.5498H107.815V15H102.428V7.17969H107.826V8.63525H104.313V10.2842H107.278V11.686ZM53.5186 17.1797V22.4971C53.515 23.2347 53.2822 23.8381 52.8203 24.3071C52.362 24.7762 51.7389 25.0394 50.9512 25.0967L50.6772 25.1074C49.8215 25.1074 49.1393 24.8765 48.6309 24.4146C48.1224 23.9526 47.8646 23.3171 47.8574 22.5078V17.1797H48.8779V22.4756C48.8779 23.0413 49.0337 23.4818 49.3452 23.7969C49.6567 24.1084 50.1007 24.2642 50.6772 24.2642C51.2609 24.2642 51.7067 24.1084 52.0146 23.7969C52.3262 23.4854 52.4819 23.0467 52.4819 22.481V17.1797H53.5186ZM61.1562 25H60.1196L56.1826 18.9736V25H55.146V17.1797H56.1826L60.1304 23.2329V17.1797H61.1562V25ZM64.0942 25H63.063V17.1797H64.0942V25ZM68.5737 23.6304L70.8081 17.1797H71.936L69.0356 25H68.1226L65.2275 17.1797H66.3501L68.5737 23.6304ZM77.4092 21.3853H74.02V24.1567H77.957V25H72.9888V17.1797H77.9033V18.0283H74.02V20.542H77.4092V21.3853ZM82.1089 21.8364H80.272V25H79.2354V17.1797H81.8242C82.7051 17.1797 83.3818 17.3802 83.8545 17.7812C84.3307 18.1823 84.5688 18.766 84.5688 19.5322C84.5688 20.0192 84.4364 20.4435 84.1714 20.8052C83.91 21.1668 83.5448 21.4372 83.0757 21.6162L84.9126 24.9355V25H83.8062L82.1089 21.8364ZM80.272 20.9932H81.8564C82.3685 20.9932 82.7749 20.8607 83.0757 20.5957C83.38 20.3307 83.5322 19.9762 83.5322 19.5322C83.5322 19.0488 83.3872 18.6782 83.0972 18.4204C82.8107 18.1626 82.3953 18.0319 81.8511 18.0283H80.272V20.9932ZM88.3232 21.5142C87.4388 21.2599 86.7943 20.9484 86.3896 20.5796C85.9886 20.2072 85.7881 19.7489 85.7881 19.2046C85.7881 18.5887 86.0334 18.0802 86.5239 17.6792C87.0181 17.2746 87.659 17.0723 88.4468 17.0723C88.9839 17.0723 89.4619 17.1761 89.8809 17.3838C90.3034 17.5915 90.6292 17.8779 90.8584 18.2432C91.0911 18.6084 91.2075 19.0076 91.2075 19.4409H90.1709C90.1709 18.9683 90.0205 18.5977 89.7197 18.3291C89.4189 18.057 88.9946 17.9209 88.4468 17.9209C87.9383 17.9209 87.5409 18.0337 87.2544 18.2593C86.9715 18.4813 86.8301 18.791 86.8301 19.1885C86.8301 19.5072 86.9644 19.7775 87.2329 19.9995C87.505 20.2179 87.9652 20.4185 88.6133 20.6011C89.265 20.7837 89.7734 20.986 90.1387 21.208C90.5075 21.4264 90.7796 21.6825 90.9551 21.9761C91.1341 22.2697 91.2236 22.6152 91.2236 23.0127C91.2236 23.6465 90.9766 24.1549 90.4824 24.5381C89.9883 24.9176 89.3276 25.1074 88.5005 25.1074C87.9634 25.1074 87.4621 25.0054 86.9966 24.8013C86.5311 24.5936 86.1712 24.3107 85.917 23.9526C85.6663 23.5946 85.541 23.1882 85.541 22.7334H86.5776C86.5776 23.2061 86.7513 23.5802 87.0986 23.856C87.4495 24.1281 87.9168 24.2642 88.5005 24.2642C89.0448 24.2642 89.4619 24.1532 89.752 23.9312C90.042 23.7091 90.187 23.4066 90.187 23.0234C90.187 22.6403 90.0527 22.3449 89.7842 22.1372C89.5156 21.9259 89.0286 21.7183 88.3232 21.5142ZM96.9707 21.3853H93.5815V24.1567H97.5186V25H92.5503V17.1797H97.4648V18.0283H93.5815V20.542H96.9707V21.3853Z" fill="white"/>
<path d="M7.08984 14.1797C4.6667 14.1797 2.69531 16.1511 2.69531 18.5742C2.69531 20.9974 4.6667 22.9688 7.08984 22.9688C9.51299 22.9688 11.4844 20.9974 11.4844 18.5742C11.4844 16.1511 9.51299 14.1797 7.08984 14.1797Z" fill="white"/>
<path d="M21.1523 17.6953C17.7599 17.6953 15 20.4553 15 23.8477C15 27.2401 17.7599 30 21.1523 30C24.5447 30 27.3047 27.2401 27.3047 23.8477C27.3047 20.4553 24.5447 17.6953 21.1523 17.6953Z" fill="white"/>
<path d="M25.5469 10.6641H27.3047V12.4219H25.5469V10.6641Z" fill="white"/>
<path d="M22.0312 14.1797H23.7891V15.9375H22.0312V14.1797Z" fill="white"/>
<path d="M25.5469 7.14844H27.3047V8.90625H25.5469V7.14844Z" fill="white"/>
<path d="M15 0H16.7578V3.51562H15V0Z" fill="white"/>
<path d="M15 5.27344H16.7578V7.03125H15V5.27344Z" fill="white"/>
<path d="M18.5156 1.75781H20.2734V7.03125H18.5156V1.75781Z" fill="white"/>
<path d="M22.0312 0H23.7891V1.75781H22.0312V0Z" fill="white"/>
<path d="M9.72656 1.75781H11.4844V5.27344H9.72656V1.75781Z" fill="white"/>
<path d="M6.21094 0H7.96875V1.75781H6.21094V0Z" fill="white"/>
<path d="M2.69531 7.03125H4.45312V8.78906H2.69531V7.03125Z" fill="white"/>
<path d="M4.45312 10.5469H2.69531V14.2734C3.19922 13.7572 3.79395 13.3301 4.45312 13.0166V10.5469Z" fill="white"/>
<path d="M9.72656 13.0166C10.3857 13.3301 10.9805 13.7572 11.4844 14.2734V7.03125H9.72656V13.0166Z" fill="white"/>
<path d="M6.21094 3.51562H7.96875V12.4219H6.21094V3.51562Z" fill="white"/>
<path d="M18.5156 8.78906H20.2734V15.9375H18.5156V8.78906Z" fill="white"/>
<path d="M22.0312 3.51562H23.7891V12.4219H22.0312V3.51562Z" fill="white"/>
<path d="M25.5469 17.2729C26.2102 17.7182 26.8031 18.2613 27.3047 18.8807V14.1797H25.5469V17.2729Z" fill="white"/>
<path d="M16.7578 17.2729V8.78906H15V18.8807C15.5016 18.2613 16.0945 17.7182 16.7578 17.2729Z" fill="white"/>
</svg>
