<svg width="112" height="112" viewBox="0 0 112 112" fill="none" xmlns="http://www.w3.org/2000/svg">
<path d="M110.39 60.9168C110.222 61.5045 110.064 62.0972 109.876 62.6849C109.116 65.1 107.437 66.7249 105.273 67.8708C102.132 69.5352 98.7243 70.3797 95.2473 70.9872C92.6148 71.4465 89.9626 71.7626 87.2857 71.7873C85.2361 71.8071 83.1864 71.9157 81.1368 71.8812C78.287 71.8318 75.4372 71.6886 72.5875 71.57C70.8539 71.5009 69.1154 71.4416 67.3868 71.3231C65.2482 71.1749 63.1047 71.0366 60.9761 70.7749C57.4941 70.3402 54.0072 69.9204 50.5549 69.2932C47.0088 68.6462 43.4923 67.8115 39.9906 66.9669C37.284 66.315 34.5973 65.5692 31.9352 64.7592C28.4285 63.6924 24.9466 62.5614 21.4696 61.3958C18.0815 60.2599 14.7131 59.0795 11.3547 57.8694C9.26058 57.1138 7.17141 56.3334 5.14151 55.4346C4.12903 54.9901 3.24496 54.2542 2.30657 53.6417C2.21273 53.5825 2.17322 53.4442 2.17322 53.2269C2.39053 53.2861 2.61278 53.3256 2.82022 53.4096C6.21326 54.7431 9.59148 56.1161 12.9993 57.4052C15.1823 58.23 17.4098 58.9511 19.6323 59.6722C22.2104 60.5068 24.7984 61.3168 27.3963 62.0774C30.0683 62.8578 32.7452 63.6282 35.4517 64.2851C39.0275 65.1494 42.623 65.9643 46.2334 66.6706C49.8981 67.3868 53.5874 67.9942 57.2768 68.5523C60.3192 69.0117 63.3813 69.3722 66.4435 69.6834C68.745 69.9204 71.0564 70.0291 73.3678 70.1575C75.3039 70.2661 77.2399 70.3057 79.1809 70.3896C80.2724 70.439 81.359 70.5575 82.4505 70.5674C83.1518 70.5773 83.8532 70.4341 84.5594 70.3847C86.7869 70.2365 89.0242 70.1427 91.2467 69.9402C92.9556 69.7871 94.6694 69.5895 96.3486 69.2487C98.7095 68.7647 101.075 68.2313 103.263 67.1793C105.007 66.3446 106.656 65.342 107.846 63.7566C109.259 61.8799 109.634 59.7709 108.977 57.5435C108.049 54.4122 106.439 51.6513 104.202 49.2658C103.703 48.7374 103.184 48.2237 102.67 47.7101C102.552 47.5915 102.433 47.4434 102.285 47.394C102.093 47.3298 101.796 47.2557 101.683 47.3545C101.559 47.4582 101.505 47.7891 101.579 47.9521C101.717 48.2632 101.935 48.5596 102.182 48.8016C102.661 49.2757 103.214 49.6708 103.668 50.1598C104.276 50.8167 104.814 51.5328 105.456 52.3181C104.799 52.5749 104.216 52.8367 103.609 53.0342C102.399 53.4195 101.139 53.6121 99.9096 53.2516C98.4576 52.8268 97.3562 51.923 96.6549 50.5302C95.3658 47.9768 95.1189 45.2505 95.1584 42.46C95.1633 42.134 95.2374 41.8278 95.6374 42.134C97.1488 43.2799 98.9317 43.6552 100.734 44.0306C101.806 44.2528 102.947 44.4356 103.885 44.9492C105.387 45.779 106.281 47.1619 106.207 48.9547C106.167 49.8635 106.459 50.5549 106.997 51.2513C108.35 53.0095 109.457 54.916 110.108 57.0545C110.227 57.4447 110.306 57.8447 110.405 58.2399C110.39 59.119 110.39 60.0179 110.39 60.9168Z" fill="black"/>
<path d="M96.0177 52.3922C95.9436 52.4268 95.914 52.4515 95.8794 52.4564C94.6398 52.496 93.3952 52.5058 92.1555 52.575C90.985 52.6392 89.8194 52.7676 88.6488 52.8466C87.2215 52.9454 85.7892 53.0047 84.3619 53.1034C83.6062 53.1578 82.8604 53.2714 82.1097 53.3455C80.87 53.4739 79.6254 53.5875 78.3858 53.7159C77.4078 53.8146 76.4299 53.9431 75.4471 54.027C73.9308 54.1554 72.4097 54.2542 70.8934 54.3727C69.9501 54.4468 69.0117 54.5555 68.0683 54.6345C67.0559 54.7234 66.0335 54.7777 65.021 54.8815C64.0184 54.9852 63.0208 55.1531 62.0182 55.2519C61.3563 55.3161 60.6896 55.3013 60.0228 55.3358C59.4894 55.3655 58.961 55.4247 58.4325 55.4741C57.4694 55.5581 56.5063 55.6519 55.5432 55.726C54.2443 55.8248 52.9503 55.9285 51.6514 55.9977C50.6734 56.052 49.6955 56.0421 48.7226 56.0964C48.0558 56.131 47.394 56.2693 46.7272 56.2792C45.9271 56.294 45.1221 56.1853 44.322 56.2001C43.6009 56.215 42.8798 56.3977 42.1587 56.3779C40.6573 56.3384 39.1559 56.2644 37.6643 56.1211C35.9604 55.9581 34.2515 55.7902 32.5772 55.4593C30.9968 55.1531 29.4558 54.5901 28.2359 53.4936C27.0802 52.4515 26.0331 51.2859 26.0875 49.5474C26.122 48.446 26.5666 47.4928 27.2728 46.7075C29.041 44.7369 31.2733 43.433 33.6934 42.4156C34.3701 42.1292 35.0417 41.818 35.7184 41.5316C35.9258 41.4427 36.153 41.4031 36.3703 41.3439C36.395 41.3982 36.4246 41.4525 36.4493 41.5118C35.9653 41.7884 35.5011 42.0995 35.0022 42.3415C33.1403 43.2503 31.461 44.4307 29.9497 45.8334C29.036 46.6828 28.3297 47.6904 28.3051 49.0288C28.2902 49.8388 28.6705 50.5352 29.2188 51.0093C29.925 51.6218 30.7795 52.0811 31.6191 52.5108C33.8218 53.6517 36.2518 53.8838 38.662 54.1851C39.0275 54.2295 39.3929 54.269 39.7584 54.2789C40.1634 54.2888 40.2375 54.0073 40.2523 53.6764C40.2622 53.3553 40.2424 53.0837 39.8325 53.0096C39.5609 52.9602 39.304 52.8367 39.0324 52.7577C37.6297 52.3626 37.042 51.3452 36.884 49.987C36.7309 48.688 36.7753 47.3941 37.4865 46.2581C37.8668 45.6556 38.3409 45.0431 38.9188 44.6431C41.6698 42.7465 45.127 43.7343 46.7519 46.1099C46.8507 46.2581 46.9347 46.4211 47.0779 46.673C46.2729 46.8458 45.5518 47.0039 44.8307 47.152C43.7145 47.3842 42.5983 47.6114 41.4772 47.8435C40.8252 47.9768 40.4351 48.4559 40.4795 49.0585C40.524 49.6215 40.9783 50.0759 41.6006 50.1154C42.4699 50.1747 43.3391 50.2043 44.2084 50.2487C45.4826 50.3179 46.7569 50.3969 48.0311 50.4759C48.1348 50.4809 48.2633 50.5204 48.3324 50.5945C48.9152 51.2168 48.5942 52.8565 47.8138 53.2121C46.6383 53.7504 45.3987 53.5875 44.1689 53.5331C43.8725 53.5183 43.5713 53.4837 43.2749 53.4689C42.8996 53.4541 42.6329 53.622 42.6329 54.0073C42.6329 54.4073 42.9737 54.3925 43.2552 54.3925C45.0678 54.3974 46.8853 54.4221 48.6979 54.3876C50.2734 54.353 51.844 54.2493 53.4195 54.1653C54.6147 54.1011 55.8099 54.1307 57.0002 53.8838C57.8053 53.7159 58.6597 53.8147 59.4944 53.7504C60.4179 53.6813 61.3316 53.5479 62.2552 53.464C63.4702 53.3553 64.6901 53.2911 65.9002 53.1677C67.209 53.0343 68.5128 52.812 69.8266 52.6985C71.6985 52.5305 73.5752 52.4367 75.452 52.2935C76.1089 52.2441 76.7658 52.1305 77.4227 52.0712C78.3808 51.9823 79.339 51.9082 80.3021 51.8292C81.3985 51.7403 82.49 51.6267 83.5864 51.5576C85.2212 51.4538 86.861 51.3896 88.4957 51.2958C90.0762 51.202 91.6517 51.0933 93.2272 50.9945C93.5631 50.9748 93.8989 50.9353 94.2348 50.9353C95.4201 50.9353 95.6473 51.118 96.0177 52.3922ZM37.6446 48.8362C38.6422 45.8482 40.682 44.6628 43.759 44.6579C42.4896 43.9022 40.3412 44.2282 38.899 45.3592C38.1681 45.9321 37.3038 47.9423 37.6446 48.8362Z" fill="black"/>
<path d="M1.98059 50.8809C2.48436 50.6932 2.98319 50.5104 3.48696 50.3228C5.28473 49.6461 7.09238 48.9794 8.88027 48.2781C10.4805 47.6508 12.0708 46.9989 13.6562 46.3371C16.264 45.2554 18.8618 44.159 21.4696 43.0774C23.3316 42.3069 25.1787 41.5019 27.0703 40.8005C28.799 40.1634 30.572 39.6498 32.3204 39.067C32.8983 38.8743 33.4564 38.6076 34.0342 38.415C34.9479 38.1187 35.8715 37.8421 36.8 37.5853C38.0545 37.2445 39.3041 36.8741 40.5783 36.6321C41.818 36.395 43.0971 36.3654 44.3467 36.1481C46.7421 35.7332 49.1523 35.7431 51.5674 35.7925C52.5799 35.8122 53.5874 35.9801 54.595 36.0641C56.2199 36.1974 57.8596 36.237 59.4697 36.474C61.0304 36.7012 62.5664 37.1062 64.1123 37.4569C65.673 37.8125 67.2485 38.1286 68.7796 38.5928C70.1427 39.0077 71.4515 39.6053 72.785 40.114C73.027 40.2079 73.2937 40.2375 73.5308 40.3412C74.9236 40.9734 76.3262 41.5858 77.6894 42.2773C79.2847 43.0872 80.8799 43.912 82.411 44.8307C83.7692 45.6505 85.0583 46.5889 86.3523 47.5125C86.9597 47.9422 87.508 48.4559 88.0809 48.9349C88.1895 49.0238 88.2686 49.1424 88.2982 49.3399C88.0019 49.1671 87.7055 48.9942 87.4092 48.8263C85.4978 47.7397 83.5667 46.6877 81.6751 45.5666C79.739 44.4208 77.6499 43.6206 75.6002 42.7366C74.6272 42.3168 73.6148 42.0007 72.6418 41.5858C70.5428 40.6869 68.3548 40.0745 66.1521 39.5362C64.053 39.0225 61.954 38.5039 59.8302 38.1138C58.2251 37.8174 56.5854 37.6495 54.9506 37.5655C52.6441 37.447 50.3277 37.4075 48.0163 37.4322C46.8112 37.447 45.6012 37.6297 44.406 37.8174C42.8403 38.0644 41.2846 38.3607 39.7387 38.7064C38.9238 38.8892 38.1483 39.225 37.3532 39.4917C35.8122 40.0152 34.2565 40.4894 32.7452 41.0722C30.4782 41.9464 28.2359 42.8847 25.9936 43.8182C24.0625 44.6233 22.1512 45.4727 20.225 46.2877C18.6791 46.9396 17.0937 47.5125 15.5676 48.2138C12.6981 49.5325 9.73964 50.5993 6.7911 51.7205C5.58107 52.1798 4.59328 52.16 3.50178 51.6019C3.02764 51.3599 2.49918 51.2167 1.99541 51.0241C1.98553 50.9796 1.98059 50.9303 1.98059 50.8809Z" fill="black"/>
<path d="M47.1816 47.0925C47.4928 48.0013 47.8138 48.9101 48.1052 49.8238C48.1249 49.883 47.9175 50.1053 47.8187 50.1053C47.0779 50.0855 46.3321 50.0411 45.5962 49.967C45.4925 49.9571 45.3048 49.7003 45.3344 49.6312C45.7197 48.6582 46.3914 47.8828 46.9791 47.0481C47.0433 47.0629 47.1125 47.0777 47.1816 47.0925Z" fill="black"/>
<path d="M41.5908 49.5572C41.1117 49.3893 41.0475 49.0436 41.2204 48.7275C41.3587 48.4805 41.6451 48.2286 41.9118 48.1546C42.6971 47.9323 43.5071 47.7841 44.3121 47.6261C44.4257 47.6014 44.6035 47.631 44.6628 47.7051C44.7171 47.7693 44.6826 47.957 44.6233 48.0508C44.3121 48.5596 43.996 49.0633 43.6553 49.5523C43.4923 49.7894 42.3514 49.898 42.1341 49.7004C42.055 49.6264 42.0402 49.4486 42.0452 49.3201C42.0501 49.1374 42.0995 48.9547 42.1242 48.7769C42.0057 48.7571 41.7884 48.6978 41.7785 48.7275C41.7093 48.8954 41.6797 49.0831 41.6402 49.2658C41.6254 49.335 41.6155 49.4041 41.5908 49.5572Z" fill="black"/>
<path d="M43.9861 49.7251C44.4454 49.009 44.88 48.2731 45.3838 47.5866C45.527 47.394 45.8777 47.3495 46.1296 47.2408C46.1592 47.2853 46.1888 47.3347 46.2234 47.3791C45.7196 48.1545 45.2307 48.9398 44.6973 49.6906C44.5936 49.8338 44.3022 49.8486 44.0947 49.9177C44.0552 49.8535 44.0207 49.7893 43.9861 49.7251Z" fill="black"/>
<path d="M37.6445 48.8362C37.2988 47.9423 38.168 45.9321 38.899 45.3592C40.3412 44.2282 42.4896 43.9022 43.7589 44.6579C40.6869 44.6579 38.6422 45.8482 37.6445 48.8362Z" fill="black"/>
</svg>
