<svg width="98" height="34" viewBox="0 0 98 34" fill="none" xmlns="http://www.w3.org/2000/svg">
<path d="M28.316 31.042L25.292 33.016L23.234 29.95C20.882 31.098 18.474 31.672 16.01 31.672C11.642 31.672 7.974 30.16 5.006 27.136C2.038 24.14 0.554001 20.416 0.554001 15.964C0.554001 11.512 2.038 7.78801 5.006 4.79201C7.974 1.76801 11.642 0.256012 16.01 0.256012C20.378 0.256012 24.046 1.78201 27.014 4.83401C29.982 7.83001 31.466 11.54 31.466 15.964C31.466 18.316 31.004 20.514 30.08 22.558C29.184 24.602 27.896 26.38 26.216 27.892L28.316 31.042ZM16.01 27.976C17.802 27.976 19.496 27.584 21.092 26.8L17.564 21.508L20.588 19.45L24.074 24.7C26.37 22.488 27.518 19.576 27.518 15.964C27.518 12.464 26.412 9.59401 24.2 7.35401C22.016 5.08601 19.286 3.95201 16.01 3.95201C12.734 3.95201 9.99 5.08601 7.778 7.35401C5.594 9.62201 4.502 12.492 4.502 15.964C4.502 19.436 5.594 22.306 7.778 24.574C9.99 26.842 12.734 27.976 16.01 27.976ZM53.414 31H49.718V28.144H49.55C48.962 29.152 48.052 29.992 46.82 30.664C45.616 31.336 44.356 31.672 43.04 31.672C40.52 31.672 38.574 30.958 37.202 29.53C35.858 28.074 35.186 26.016 35.186 23.356V10.42H39.05V23.104C39.134 26.464 40.828 28.144 44.132 28.144C45.672 28.144 46.96 27.528 47.996 26.296C49.032 25.036 49.55 23.538 49.55 21.802V10.42H53.414V31ZM60.7265 24.7C60.7265 25.708 61.1465 26.548 61.9865 27.22C62.8545 27.892 63.8625 28.228 65.0105 28.228C66.6345 28.228 68.0765 27.626 69.3365 26.422C70.6245 25.218 71.2685 23.804 71.2685 22.18C70.0645 21.228 68.3845 20.752 66.2285 20.752C64.6605 20.752 63.3445 21.13 62.2805 21.886C61.2445 22.642 60.7265 23.58 60.7265 24.7ZM65.7245 9.74801C68.5805 9.74801 70.8345 10.518 72.4865 12.058C74.1385 13.57 74.9645 15.656 74.9645 18.316V31H71.2685V28.144H71.1005C69.5045 30.496 67.3765 31.672 64.7165 31.672C62.4485 31.672 60.5445 31 59.0045 29.656C57.4925 28.312 56.7365 26.632 56.7365 24.616C56.7365 22.488 57.5345 20.794 59.1305 19.534C60.7545 18.274 62.9105 17.644 65.5985 17.644C67.8945 17.644 69.7845 18.064 71.2685 18.904V18.022C71.2685 16.678 70.7365 15.544 69.6725 14.62C68.6085 13.668 67.3625 13.192 65.9345 13.192C63.7785 13.192 62.0705 14.102 60.8105 15.922L57.4085 13.78C59.2845 11.092 62.0565 9.74801 65.7245 9.74801ZM97.4247 31H92.7627L86.3367 21.298L83.1867 24.406V31H79.3227V0.928013H83.1867V19.45L92.0907 10.42H97.0467V10.588L89.0247 18.568L97.4247 30.832V31Z" fill="#333333"/>
</svg>
