<svg width="112" height="39" viewBox="0 0 112 39" fill="none" xmlns="http://www.w3.org/2000/svg">
<path d="M6.8969 13.3244L14.1316 9.14755V4L2.43896 10.7506L6.8969 13.3244Z" fill="#323846"/>
<path d="M6.01524 23.2055V14.8518L1.58203 12.2922V25.7651L6.01524 23.2055Z" fill="#323846"/>
<path d="M22.248 14.8517L15.0133 10.6747L7.77878 14.8517V23.2055L15.0133 27.3823L22.248 23.2055V14.8517Z" fill="#323846"/>
<path d="M15.8951 4V9.14755L23.1296 13.3244L27.5876 10.7506L15.8951 4Z" fill="#323846"/>
<path d="M24.0115 14.8518V23.2055L28.4445 25.7651V12.2922L24.0115 14.8518Z" fill="#323846"/>
<path d="M14.1316 28.9097L6.89691 24.7328L2.48865 27.278L14.1316 34V28.9097Z" fill="#323846"/>
<path d="M23.1296 24.7328L15.8951 28.9097V34L27.5381 27.278L23.1296 24.7328Z" fill="#323846"/>
<path d="M43.794 11.468C43.794 12.458 43.254 13.052 42.102 13.052H40.194V9.92001H42.102C43.254 9.92001 43.794 10.532 43.794 11.468ZM37.116 7.36401V20H40.194V15.23H40.932L43.56 20H47.034L44.118 14.996C46.062 14.42 46.926 12.926 46.926 11.342C46.926 9.14601 45.378 7.36401 42.282 7.36401H37.116ZM48.8042 14.906C48.8042 18.398 51.0902 20.126 54.0242 20.126C56.9402 20.126 59.3882 18.398 59.3882 14.906V7.36401H56.3102V14.924C56.3102 16.418 55.5362 17.282 54.0782 17.282C52.6202 17.282 51.8822 16.418 51.8822 14.924V7.36401H48.8042V14.906ZM68.5156 16.148C68.5156 17.048 67.9216 17.516 66.8956 17.516H64.6276V14.726H66.8596C67.8856 14.726 68.5156 15.248 68.5156 16.148ZM68.2096 11.162C68.2096 12.026 67.6516 12.476 66.6436 12.476H64.6276V9.83001H66.6436C67.6516 9.83001 68.2096 10.298 68.2096 11.162ZM71.6296 16.562C71.6296 15.122 70.6756 13.826 69.1996 13.52C70.4236 13.16 71.3416 12.17 71.3416 10.64C71.3416 8.64201 69.8116 7.36401 67.2376 7.36401H61.5496V20H67.4356C70.0996 20 71.6296 18.65 71.6296 16.562ZM73.4148 20H76.4928V7.36401H73.4148V20ZM78.6694 14.906C78.6694 18.398 80.9554 20.126 83.8894 20.126C86.8054 20.126 89.2534 18.398 89.2534 14.906V7.36401H86.1754V14.924C86.1754 16.418 85.4014 17.282 83.9434 17.282C82.4854 17.282 81.7474 16.418 81.7474 14.924V7.36401H78.6694V14.906ZM91.4148 20H94.4928V12.404L97.3368 20H99.8208L102.647 12.422V20H105.725V7.36401H102.107L98.5968 16.112L95.0508 7.36401H91.4148V20ZM111.196 18.488C111.196 17.534 110.458 16.796 109.378 16.796C108.28 16.796 107.542 17.534 107.542 18.488C107.542 19.406 108.28 20.144 109.378 20.144C110.458 20.144 111.196 19.406 111.196 18.488Z" fill="#323846"/>
<path d="M42.36 31.72C42.36 28.624 37.848 29.968 37.848 27.808C37.848 26.908 38.556 26.44 39.456 26.464C40.476 26.476 41.004 27.112 41.076 27.676H42.276C42.144 26.404 41.1 25.528 39.504 25.528C37.848 25.528 36.732 26.464 36.732 27.844C36.732 30.952 41.256 29.512 41.256 31.768C41.256 32.56 40.632 33.16 39.576 33.16C38.412 33.16 37.92 32.464 37.848 31.768H36.684C36.708 33.148 37.896 34.084 39.576 34.084C41.388 34.084 42.36 32.908 42.36 31.72ZM44.207 32.2C44.207 33.52 44.867 34 46.031 34H47.015V33.076H46.211C45.539 33.076 45.299 32.848 45.299 32.2V28.324H47.015V27.424H45.299V25.768H44.207V27.424H43.355V28.324H44.207V32.2ZM54.1701 27.424H53.0781V31.036C53.0781 32.452 52.3221 33.148 51.1941 33.148C50.0901 33.148 49.3581 32.464 49.3581 31.132V27.424H48.2781V31.276C48.2781 33.16 49.4661 34.096 50.9781 34.096C51.8541 34.096 52.6581 33.712 53.0781 33.028V34H54.1701V27.424ZM55.6058 30.688C55.6058 32.728 56.9618 34.108 58.7258 34.108C59.9258 34.108 60.7778 33.496 61.1738 32.764V34H62.2778V25.12H61.1738V28.6C60.7178 27.844 59.7698 27.316 58.7378 27.316C56.9618 27.316 55.6058 28.636 55.6058 30.688ZM61.1738 30.7C61.1738 32.248 60.1418 33.148 58.9418 33.148C57.7418 33.148 56.7218 32.236 56.7218 30.688C56.7218 29.14 57.7418 28.264 58.9418 28.264C60.1418 28.264 61.1738 29.176 61.1738 30.7ZM64.1232 34H65.2152V27.424H64.1232V34ZM64.6872 26.356C65.0832 26.356 65.4072 26.032 65.4072 25.612C65.4072 25.192 65.0832 24.868 64.6872 24.868C64.2672 24.868 63.9432 25.192 63.9432 25.612C63.9432 26.032 64.2672 26.356 64.6872 26.356ZM73.3163 30.7C73.3163 28.624 71.8643 27.316 69.9923 27.316C68.1323 27.316 66.6683 28.624 66.6683 30.7C66.6683 32.788 68.0843 34.108 69.9443 34.108C71.8163 34.108 73.3163 32.788 73.3163 30.7ZM67.7843 30.7C67.7843 29.044 68.8283 28.264 69.9803 28.264C71.1083 28.264 72.2003 29.044 72.2003 30.7C72.2003 32.368 71.0843 33.148 69.9443 33.148C68.8043 33.148 67.7843 32.368 67.7843 30.7ZM75.8201 33.328C75.8201 32.908 75.4961 32.584 75.1001 32.584C74.6801 32.584 74.3561 32.908 74.3561 33.328C74.3561 33.748 74.6801 34.072 75.1001 34.072C75.4961 34.072 75.8201 33.748 75.8201 33.328Z" fill="#323846"/>
</svg>
